HIERARCHY
ROOT hip
{
  OFFSET 0 0 0
  CHANNELS 6 Xposition Yposition Zposition Zrotation Yrotation Xrotation
  JOINT abdomen
  {
    OFFSET 0 20.6881 -0.73152
    CHANNELS 3 Zrotation Xrotation Yrotation
    JOINT chest
    {
      OFFSET 0 11.7043 -0.48768
      CHANNELS 3 Zrotation Xrotation Yrotation
      JOINT neck
      {
        OFFSET 0 22.1894 -2.19456
        CHANNELS 3 Zrotation Xrotation Yrotation
        JOINT head
        {
          OFFSET -0.24384 7.07133 1.2192
          CHANNELS 3 Zrotation Xrotation Yrotation
          JOINT leftEye
          {
            OFFSET 4.14528 8.04674 8.04672
            CHANNELS 3 Zrotation Xrotation Yrotation
            End Site
            {
              OFFSET 1 0 0
            }
          }
          JOINT rightEye
          {
            OFFSET -3.6576 8.04674 8.04672
            CHANNELS 3 Zrotation Xrotation Yrotation
            End Site
            {
              OFFSET 1 0 0
            }
          }
        }
      }
      JOINT rCollar
      {
        OFFSET -2.68224 19.2634 -4.8768
        CHANNELS 3 Zrotation Xrotation Yrotation
        JOINT rShldr
        {
          OFFSET -8.77824 -1.95073 1.46304
          CHANNELS 3 Zrotation Xrotation Yrotation
          JOINT rForeArm
          {
            OFFSET -28.1742 -1.7115 0.48768
            CHANNELS 3 Zrotation Xrotation Yrotation
            JOINT rHand
            {
              OFFSET -22.5879 0.773209 7.07136
              CHANNELS 3 Zrotation Xrotation Yrotation
              JOINT rThumb1
              {
                OFFSET -1.2192 -0.487915 3.41376
                CHANNELS 3 Zrotation Xrotation Yrotation
                JOINT rThumb2
                {
                  OFFSET -3.37035 -0.52449 3.41376
                  CHANNELS 3 Zrotation Xrotation Yrotation
                  End Site
                  {
                    OFFSET -1.78271 -1.18214 1.43049
                  }
                }
              }
              JOINT rIndex1
              {
                OFFSET -7.75947 0.938293 5.60832
                CHANNELS 3 Zrotation Xrotation Yrotation
                JOINT rIndex2
                {
                  OFFSET -2.54057 -0.884171 1.56538
                  CHANNELS 3 Zrotation Xrotation Yrotation
                  End Site
                  {
                    OFFSET -1.62519 -0.234802 1.16502
                  }
                }
              }
              JOINT rMid1
              {
                OFFSET -8.24714 1.18213 3.41376
                CHANNELS 3 Zrotation Xrotation Yrotation
                JOINT rMid2
                {
                  OFFSET -3.10165 -0.590103 1.0647
                  CHANNELS 3 Zrotation Xrotation Yrotation
                  End Site
                  {
                    OFFSET -2.48547 -0.328903 0.83742
                  }
                }
              }
              JOINT rRing1
              {
                OFFSET -8.82822 0.546677 1.51678
                CHANNELS 3 Zrotation Xrotation Yrotation
                JOINT rRing2
                {
                  OFFSET -2.60934 -0.819778 -0.0198488
                  CHANNELS 3 Zrotation Xrotation Yrotation
                  End Site
                  {
                    OFFSET -2.33842 -0.294052 0.168128
                  }
                }
              }
              JOINT rPinky1
              {
                OFFSET -8.27202 -0.0477905 -0.4584
                CHANNELS 3 Zrotation Xrotation Yrotation
                JOINT rPinky2
                {
                  OFFSET -1.82734 -0.647385 -0.700984
                  CHANNELS 3 Zrotation Xrotation Yrotation
                  End Site
                  {
                    OFFSET -1.69225 -0.51767 -0.607171
                  }
                }
              }
            }
          }
        }
      }
      JOINT lCollar
      {
        OFFSET 2.68224 19.2634 -4.8768
        CHANNELS 3 Zrotation Xrotation Yrotation
        JOINT lShldr
        {
          OFFSET 8.77824 -1.95073 1.46304
          CHANNELS 3 Zrotation Xrotation Yrotation
          JOINT lForeArm
          {
            OFFSET 28.1742 -1.7115 0.48768
            CHANNELS 3 Zrotation Xrotation Yrotation
            JOINT lHand
            {
              OFFSET 22.5879 0.773209 7.07136
              CHANNELS 3 Zrotation Xrotation Yrotation
              JOINT lThumb1
              {
                OFFSET 1.2192 -0.487915 3.41376
                CHANNELS 3 Zrotation Xrotation Yrotation
                JOINT lThumb2
                {
                  OFFSET 3.37035 -0.52449 3.41376
                  CHANNELS 3 Zrotation Xrotation Yrotation
                  End Site
                  {
                    OFFSET 1.78271 -1.18214 1.43049
                  }
                }
              }
              JOINT lIndex1
              {
                OFFSET 7.75947 0.938293 5.60832
                CHANNELS 3 Zrotation Xrotation Yrotation
                JOINT lIndex2
                {
                  OFFSET 2.54057 -0.884171 1.56538
                  CHANNELS 3 Zrotation Xrotation Yrotation
                  End Site
                  {
                    OFFSET 1.62519 -0.234802 1.16502
                  }
                }
              }
              JOINT lMid1
              {
                OFFSET 8.24714 1.18213 3.41376
                CHANNELS 3 Zrotation Xrotation Yrotation
                JOINT lMid2
                {
                  OFFSET 3.10165 -0.590103 1.0647
                  CHANNELS 3 Zrotation Xrotation Yrotation
                  End Site
                  {
                    OFFSET 2.48547 -0.328903 0.83742
                  }
                }
              }
              JOINT lRing1
              {
                OFFSET 8.82822 0.546677 1.51678
                CHANNELS 3 Zrotation Xrotation Yrotation
                JOINT lRing2
                {
                  OFFSET 2.60934 -0.819778 -0.0198488
                  CHANNELS 3 Zrotation Xrotation Yrotation
                  End Site
                  {
                    OFFSET 2.33842 -0.294052 0.168128
                  }
                }
              }
              JOINT lPinky1
              {
                OFFSET 8.27202 -0.0477905 -0.4584
                CHANNELS 3 Zrotation Xrotation Yrotation
                JOINT lPinky2
                {
                  OFFSET 1.82734 -0.647385 -0.700984
                  CHANNELS 3 Zrotation Xrotation Yrotation
                  End Site
                  {
                    OFFSET 1.69225 -0.51767 -0.607171
                  }
                }
              }
            }
          }
        }
      }
    }
  }
  JOINT rButtock
  {
    OFFSET -8.77824 4.35084 1.2192
    CHANNELS 3 Zrotation Xrotation Yrotation
    JOINT rThigh
    {
      OFFSET 0 -1.70687 -2.19456
      CHANNELS 3 Zrotation Xrotation Yrotation
      JOINT rShin
      {
        OFFSET 0 -36.8199 0.73152
        CHANNELS 3 Zrotation Xrotation Yrotation
        JOINT rFoot
        {
          OFFSET 0.73152 -45.1104 -5.12064
          CHANNELS 3 Zrotation Xrotation Yrotation
          End Site
          {
            OFFSET -1.1221 -3.69964 12.103
          }
        }
      }
    }
  }
  JOINT lButtock
  {
    OFFSET 8.77824 4.35084 1.2192
    CHANNELS 3 Zrotation Xrotation Yrotation
    JOINT lThigh
    {
      OFFSET 0 -1.70687 -2.19456
      CHANNELS 3 Zrotation Xrotation Yrotation
      JOINT lShin
      {
        OFFSET 0 -36.8199 0.73152
        CHANNELS 3 Zrotation Xrotation Yrotation
        JOINT lFoot
        {
          OFFSET -0.73152 -45.1104 -5.12064
          CHANNELS 3 Zrotation Xrotation Yrotation
          End Site
          {
            OFFSET 1.1221 -3.69964 12.103
          }
        }
      }
    }
  }
}
MOTION
Frames:	4
Frame Time:	0.03333
-61.46758232521965 67.47615598041882 2.0464931622288227 125.38736724853516 73.91360473632812 125.08101654052734 -13.408027648925781 26.349990844726562 14.370919227600098 -4.3633856773376465 -10.03659439086914 3.8751909732818604 2.091364622116089 14.515231132507324 11.017061233520508 -6.566554069519043 -24.668291091918945 23.40011978149414 -0.726979672908783 -0.028490524739027023 0.07139471918344498 1.0408170223236084 -0.045960430055856705 -0.3216773271560669 0.949569582939148 -0.2541429400444031 -0.2666410505771637 17.377716064453125 63.478939056396484 42.96233367919922 -28.901323318481445 -41.26926040649414 87.36343383789062 1.0521199703216553 10.758210182189941 -0.04076081141829491 -0.09812048077583313 -0.02906586229801178 0.8222996592521667 -0.30603909492492676 -0.22600653767585754 -0.8919650912284851 0.4912389814853668 0.7631165981292725 -0.13918207585811615 7.295328617095947 5.863807678222656 0.6878804564476013 0.135270893573761 -0.2514919340610504 -0.701632022857666 2.6353280544281006 -1.1079788208007812 -1.1710548400878906 0.7097269296646118 -0.08919106423854828 -0.1314336508512497 9.78584098815918 0.9618526101112366 -0.7281975150108337 -0.8512866497039795 0.2347222864627838 -1.361992597579956 2.0118660926818848 -0.3281042277812958 -0.9075443148612976 0.3216082453727722 -0.3515261113643646 -0.8375223278999329 -60.66704559326172 7.315561771392822 -4.536275386810303 28.404857635498047 -45.825645446777344 -91.91775512695312 2.245861291885376 -39.06984329223633 5.6579694747924805 0.6430045366287231 -0.03931870311498642 -0.42074841260910034 -0.48588836193084717 0.6777352094650269 -0.6663346290588379 -0.0008602089365012944 0.6241022348403931 -0.924756646156311 -9.410140037536621 5.957107067108154 -0.9946209788322449 0.3019487261772156 0.804151713848114 -0.6855159401893616 -2.4285147190093994 0.9003093838691711 -0.7151989340782166 -0.8966845870018005 -0.3317498564720154 0.6047242879867554 -9.366521835327148 1.4420384168624878 -1.0024502277374268 -0.60279780626297 -0.38070908188819885 -0.028750065714120865 -1.4988086223602295 -0.4703328609466553 0.1397729367017746 -0.033595919609069824 -0.6298334002494812 0.07377088069915771 -40.37677764892578 -40.606689453125 -31.199939727783203 -2.9534544944763184 78.64515686035156 2.485745429992676 -5.397575378417969 -17.683610916137695 -13.823969841003418 0.4672394096851349 -0.08605124801397324 1.0041911602020264 46.74840545654297 -49.22633743286133 30.283782958984375 0.7990981936454773 59.744422912597656 -2.377413749694824 -0.7933782339096069 7.522455215454102 -5.814057350158691
-62.573484827441156 66.66791237517452 1.0031550860829297 124.95172119140625 73.57646942138672 125.93230438232422 -13.80483341217041 25.815677642822266 14.475554466247559 -4.2504425048828125 -9.997283935546875 3.8769288063049316 2.0730066299438477 14.474396705627441 11.194979667663574 -6.559752464294434 -24.279054641723633 23.6070613861084 -0.697699248790741 -0.0834483876824379 -0.0440058596432209 1.2081471681594849 -0.0188588909804821 -0.33671677112579346 1.0851507186889648 -0.25057920813560486 -0.30006077885627747 16.534265518188477 63.85323715209961 43.544918060302734 -28.916786193847656 -41.49028015136719 87.33609771728516 1.0564277172088623 11.32406234741211 0.16119900345802307 0.03201169893145561 0.09755154699087143 0.8235001564025879 -0.27437734603881836 -0.2828547954559326 -1.0947136878967285 0.5634840130805969 0.7668992877006531 -0.15418753027915955 7.182322025299072 5.931690216064453 0.7003242373466492 0.09543289989233017 -0.25311243534088135 -0.616869330406189 2.8311331272125244 -1.1028826236724854 -1.233086109161377 0.7541692852973938 -0.0735769048333168 -0.05032038688659668 9.777027130126953 0.8813773989677429 -0.6323350071907043 -0.824994683265686 0.2148265391588211 -1.446474313735962 2.041409969329834 -0.3384641408920288 -0.854222297668457 0.08284013718366623 -0.43995463848114014 -0.9539263248443604 -60.116119384765625 6.965025901794434 -5.087810039520264 27.999757766723633 -45.87289810180664 -91.8039779663086 2.419013023376465 -39.31618881225586 5.759613037109375 0.5484066009521484 -0.09889315068721771 -0.44839757680892944 -0.5447409152984619 0.5756519436836243 -0.7790558934211731 -0.0031149510759860277 0.681218683719635 -1.1293938159942627 -9.420303344726562 5.96401834487915 -0.9708730578422546 0.2133120745420456 0.8337770104408264 -0.8124921917915344 -2.515552282333374 1.006666660308838 -0.8803837299346924 -1.0194575786590576 -0.302834689617157 0.47092515230178833 -9.377056121826172 1.5860706567764282 -0.9674357771873474 -0.5959839820861816 -0.5279266238212585 0.056341901421546936 -1.5814250707626343 -0.32035043835639954 0.014277270063757896 -0.10649573057889938 -0.7476908564567566 0.09260369092226028 -43.04648208618164 -41.184967041015625 -33.21372604370117 -4.020285129547119 79.9939956665039 3.4450619220733643 -4.74725866317749 -17.725814819335938 -12.702127456665039 0.4250841438770294 -0.05601922422647476 1.0421383380889893 44.931278228759766 -47.082275390625 28.022289276123047 0.5534218549728394 57.95981979370117 -2.2821755409240723 -1.049008846282959 6.127151966094971 -5.2084059715271
-63.826265638565324 65.93310013369705 -0.1761712026642711 124.09587860107422 73.95035552978516 126.18877410888672 -13.790502548217773 25.495025634765625 14.719148635864258 -4.105440139770508 -9.751683235168457 4.011857032775879 1.9889845848083496 14.3773193359375 11.718851089477539 -6.341231822967529 -24.25286865234375 24.223665237426758 -0.7293198108673096 -0.14161638915538788 -0.19285064935684204 1.2181026935577393 -0.17448654770851135 -0.2546713948249817 1.145493745803833 -0.29263004660606384 -0.2898992896080017 17.485145568847656 64.77091979980469 42.52877426147461 -28.85192108154297 -41.47975540161133 87.08165740966797 1.0544610023498535 11.327044486999512 0.26678141951560974 0.1272248923778534 0.23872950673103333 0.9397312998771667 -0.2407958060503006 -0.3281469941139221 -1.1665359735488892 0.6195910573005676 0.7745249271392822 -0.13302719593048096 7.089170455932617 5.949483394622803 0.8722788691520691 -0.00033518491545692086 -0.27865150570869446 -0.5033770799636841 3.1129262447357178 -1.032637357711792 -1.088664174079895 0.7493164539337158 -0.10970748960971832 0.10727839171886444 9.861279487609863 0.8610389828681946 -0.489705353975296 -0.6593522429466248 0.136696919798851 -1.4374998807907104 1.971236228942871 -0.334900826215744 -0.7433708906173706 -0.1342962682247162 -0.4998685121536255 -0.9238807559013367 -59.86498260498047 6.412675380706787 -5.498553276062012 27.529827117919922 -45.41114807128906 -91.19171905517578 2.3755288124084473 -38.7637825012207 5.654858112335205 0.4727669358253479 -0.17507337033748627 -0.28495609760284424 -0.6003764867782593 0.45437973737716675 -0.70655357837677 -0.08095581084489822 0.6343808174133301 -1.185020923614502 -9.442927360534668 5.9121479988098145 -0.7682215571403503 0.08195801079273224 0.8300679922103882 -0.844472348690033 -2.548307180404663 1.1147809028625488 -0.8169467449188232 -1.0733449459075928 -0.22585032880306244 0.4054081439971924 -9.436752319335938 1.7094072103500366 -0.7678099274635315 -0.5975984930992126 -0.6943729519844055 0.34299471974372864 -1.5836713314056396 -0.2595246434211731 -0.0617927722632885 -0.18079239130020142 -0.8148384094238281 0.11389879137277603 -43.72796630859375 -41.201629638671875 -33.319602966308594 -4.775354385375977 80.26534271240234 4.190670013427734 -4.724897861480713 -17.799453735351562 -12.369643211364746 0.36674755811691284 0.005757375154644251 1.1046117544174194 42.982139587402344 -44.99844741821289 25.593263626098633 0.2999759912490845 55.14958190917969 -2.0055651664733887 -1.294389009475708 5.590304851531982 -4.683362007141113
-65.2606479462286 65.13646785004178 -1.4456683681735107 122.44310760498047 74.91478729248047 127.34454345703125 -13.497279167175293 25.312891006469727 14.828007698059082 -3.9415876865386963 -9.470458030700684 4.088528156280518 1.9437839984893799 14.2677001953125 12.190122604370117 -5.987500190734863 -24.343320846557617 24.88881492614746 -0.8098227977752686 -0.17500850558280945 -0.34291282296180725 1.2041224241256714 -0.34757909178733826 -0.21643786132335663 1.1330385208129883 -0.3436953127384186 -0.3220582902431488 19.568958282470703 65.88681030273438 40.316322326660156 -28.691844940185547 -41.43082046508789 86.71802520751953 1.0215824842453003 11.006421089172363 0.2106976956129074 0.20208267867565155 0.3513427972793579 1.064322590827942 -0.1902025043964386 -0.3612235486507416 -1.2676681280136108 0.648915708065033 0.7473944425582886 -0.12938463687896729 6.977917194366455 5.99265718460083 1.0409975051879883 -0.1205165758728981 -0.29545921087265015 -0.4294610321521759 3.4142394065856934 -0.9139811396598816 -0.9423941969871521 0.715950071811676 -0.15981702506542206 0.25094324350357056 9.92364501953125 0.8884711861610413 -0.39491841197013855 -0.4638456404209137 0.05794021487236023 -1.4156041145324707 1.8573132753372192 -0.28010454773902893 -0.650341808795929 -0.3170807957649231 -0.5791142582893372 -0.9565912485122681 -59.905094146728516 6.101818084716797 -5.85347843170166 27.09339714050293 -44.8583869934082 -90.56979370117188 2.279278039932251 -38.06433868408203 5.441903591156006 0.4165608584880829 -0.21719808876514435 -0.14872822165489197 -0.5736039280891418 0.4185410141944885 -0.6520643830299377 -0.12009379267692566 0.491973340511322 -1.1888682842254639 -9.451764106750488 5.870476245880127 -0.5712230205535889 -0.1117815375328064 0.8273465633392334 -0.886751651763916 -2.564236879348755 1.2044376134872437 -0.799445629119873 -1.0967371463775635 -0.15932239592075348 0.2788964509963989 -9.506413459777832 1.8565305471420288 -0.6053564548492432 -0.5797709822654724 -0.825316846370697 0.5452438592910767 -1.6173286437988281 -0.1720779836177826 -0.18455596268177032 -0.26283568143844604 -0.84688401222229 0.0491424985229969 -43.51376724243164 -41.15543746948242 -32.66243362426758 -5.123851776123047 80.30437469482422 4.503910541534424 -4.963705062866211 -18.007823944091797 -12.398687362670898 0.2938895523548126 0.05894520506262779 1.0622990131378174 41.25288391113281 -43.095462799072266 23.320194244384766 0.13308383524417877 52.40531539916992 -1.880866289138794 -1.5586553812026978 5.401326656341553 -4.166412353515625
